<svg xmlns="http://www.w3.org/2000/svg" viewBox="0 0 127.96 96.7"><defs><style>.cls-1{fill:#fff;}</style></defs><g id="Capa_2" data-name="Capa 2"><g id="Capa_1-2" data-name="Capa 1"><path class="cls-1" d="M24.92,29.2a.12.12,0,0,1,.12-.13H26.6a2.31,2.31,0,1,1,0,4.62H25a.12.12,0,0,1-.12-.12Zm1.61,3.69a1.51,1.51,0,0,0,0-3h-.76v3Z"></path><path class="cls-1" d="M30.46,29.2a.12.12,0,0,1,.12-.13h2.69a.13.13,0,0,1,.13.13v.54a.13.13,0,0,1-.13.12h-2V31H33a.13.13,0,0,1,.12.12v.55a.13.13,0,0,1-.12.13H31.32V32.9h2a.13.13,0,0,1,.13.13v.54a.13.13,0,0,1-.13.12H30.58a.12.12,0,0,1-.12-.12Z"></path><path class="cls-1" d="M34.73,33.05l.24-.41a.16.16,0,0,1,.22,0,2.23,2.23,0,0,0,1,.41.54.54,0,0,0,.6-.51c0-.34-.28-.57-.84-.79s-1.24-.65-1.24-1.43A1.32,1.32,0,0,1,36.2,29a2.31,2.31,0,0,1,1.32.45.15.15,0,0,1,0,.21l-.25.38a.17.17,0,0,1-.23.08,2.3,2.3,0,0,0-.92-.36.52.52,0,0,0-.58.46c0,.31.24.52.78.74s1.38.64,1.38,1.49a1.4,1.4,0,0,1-1.52,1.31,2.21,2.21,0,0,1-1.46-.51C34.71,33.19,34.67,33.15,34.73,33.05Z"></path><path class="cls-1" d="M39.25,29.2a.12.12,0,0,1,.11-.13h1.57a2.31,2.31,0,1,1,0,4.62H39.36a.12.12,0,0,1-.11-.12Zm1.6,3.69a1.51,1.51,0,0,0,0-3H40.1v3Z"></path><path class="cls-1" d="M44.78,29.2a.13.13,0,0,1,.13-.13H47.6a.12.12,0,0,1,.12.13v.54a.12.12,0,0,1-.12.12h-2V31h1.63a.13.13,0,0,1,.13.12v.55a.13.13,0,0,1-.13.13H45.64V32.9h2a.12.12,0,0,1,.12.13v.54a.12.12,0,0,1-.12.12H44.91a.12.12,0,0,1-.13-.12Z"></path><path class="cls-1" d="M89.47,33.42c.43-.53,1.26-1.62,1.71-2.2a1.28,1.28,0,0,0,.33-.74.62.62,0,0,0-.7-.6,1.14,1.14,0,0,0-.74.39.12.12,0,0,1-.17,0L89.58,30a.13.13,0,0,1,0-.17,1.85,1.85,0,0,1,1.3-.64,1.33,1.33,0,0,1,1.48,1.31,1.76,1.76,0,0,1-.45,1.07c-.28.4-.78,1-1.13,1.47h1.42a.13.13,0,0,1,.13.12v.46a.13.13,0,0,1-.13.12h-2.6a.12.12,0,0,1-.12-.12Z"></path><path class="cls-1" d="M93.75,31.45c0-1.45.6-2.31,1.66-2.31s1.67.86,1.67,2.31-.61,2.31-1.67,2.31S93.75,32.9,93.75,31.45Zm2.46,0c0-1-.29-1.53-.8-1.53s-.8.55-.8,1.53.29,1.53.8,1.53S96.21,32.43,96.21,31.45Z"></path><path class="cls-1" d="M99.07,30.4l-.58.13a.11.11,0,0,1-.13-.09l0-.32a.16.16,0,0,1,0-.12l1-.8h.47a.12.12,0,0,1,.11.13v4.24a.12.12,0,0,1-.11.12H99.2a.12.12,0,0,1-.13-.12Z"></path><path class="cls-1" d="M103.65,29.06a.13.13,0,0,1,.18.09l.15.39c0,.08,0,.15-.12.19-.31.1-1.25.54-1.45,1.27a1.68,1.68,0,0,1,.75-.19,1.35,1.35,0,0,1,1.35,1.44A1.51,1.51,0,0,1,103,33.76a1.61,1.61,0,0,1-1.57-1.82A3.06,3.06,0,0,1,103.65,29.06Zm.11,3.17a.76.76,0,0,0-.76-.77.81.81,0,0,0-.76.58c0,.45.24,1,.77,1A.77.77,0,0,0,103.76,32.23Z"></path><path class="cls-1" d="M23.83,91.73a2.29,2.29,0,0,1,1.65.64.14.14,0,0,1,0,.2l-.42.43a.1.1,0,0,1-.17,0,1.63,1.63,0,0,0-1-.4,1.6,1.6,0,0,0,0,3.2,1.6,1.6,0,0,0,1-.4.12.12,0,0,1,.17,0l.43.44a.14.14,0,0,1,0,.19,2.32,2.32,0,0,1-1.66.67,2.49,2.49,0,0,1,0-5Z"></path><path class="cls-1" d="M26.45,96.45l2.12-4.64a.14.14,0,0,1,.12-.08h.07a.12.12,0,0,1,.11.08L31,96.45a.12.12,0,0,1-.12.18h-.59c-.11,0-.15,0-.2-.14l-.34-.74h-2l-.34.74a.19.19,0,0,1-.19.14h-.6A.12.12,0,0,1,26.45,96.45ZM29.4,95l-.69-1.52h0L28,95Z"></path><path class="cls-1" d="M32.28,91.93a.13.13,0,0,1,.13-.13h2.78a.13.13,0,0,1,.13.13v.57a.13.13,0,0,1-.13.13h-2v1.3h1.69a.13.13,0,0,1,.13.13v.56a.13.13,0,0,1-.13.13H33.17V96.5a.13.13,0,0,1-.13.13h-.63a.13.13,0,0,1-.13-.13Z"></path><path class="cls-1" d="M36.82,91.93A.13.13,0,0,1,37,91.8h2.78a.13.13,0,0,1,.13.13v.57a.13.13,0,0,1-.13.13h-2v1.13H39.4a.13.13,0,0,1,.13.13v.57a.13.13,0,0,1-.13.14H37.71v1.2h2a.13.13,0,0,1,.13.13v.57a.13.13,0,0,1-.13.13H37a.13.13,0,0,1-.13-.13Zm.92-.65L37.61,91a.12.12,0,0,1,0-.13l1.13-.67c.07,0,.14,0,.17,0l.19.36c0,.08,0,.15,0,.18l-1.19.53C37.81,91.37,37.76,91.35,37.74,91.28Z"></path><path class="cls-1" d="M43.72,91.93a.12.12,0,0,1,.12-.13h1.62a2.42,2.42,0,0,1,0,4.83H43.84a.12.12,0,0,1-.12-.13Zm1.66,3.86a1.58,1.58,0,0,0,0-3.15H44.6v3.15Z"></path><path class="cls-1" d="M49.44,91.93a.13.13,0,0,1,.13-.13h2.79a.13.13,0,0,1,.13.13v.57a.13.13,0,0,1-.13.13h-2v1.13H52a.13.13,0,0,1,.13.13v.57a.13.13,0,0,1-.13.14H50.33v1.2h2a.13.13,0,0,1,.13.13v.57a.13.13,0,0,1-.13.13H49.57a.13.13,0,0,1-.13-.13Z"></path><path class="cls-1" d="M56.34,91.93a.13.13,0,0,1,.13-.13h2.78a.13.13,0,0,1,.13.13v.57a.13.13,0,0,1-.13.13h-2v1.13h1.69a.13.13,0,0,1,.13.13v.57a.13.13,0,0,1-.13.14H57.23v1.2h2a.13.13,0,0,1,.13.13v.57a.13.13,0,0,1-.13.13H56.47a.13.13,0,0,1-.13-.13Z"></path><path class="cls-1" d="M60.76,96l.25-.42a.15.15,0,0,1,.23,0,2.3,2.3,0,0,0,1,.43.58.58,0,0,0,.63-.54c0-.35-.3-.59-.87-.82s-1.29-.68-1.29-1.49a1.37,1.37,0,0,1,1.54-1.33,2.35,2.35,0,0,1,1.37.47.16.16,0,0,1,0,.22l-.26.4a.19.19,0,0,1-.24.08,2.17,2.17,0,0,0-.95-.38.54.54,0,0,0-.6.48c0,.33.25.55.8.77s1.43.67,1.43,1.56A1.45,1.45,0,0,1,62.3,96.7a2.17,2.17,0,0,1-1.5-.54C60.74,96.1,60.7,96.06,60.76,96Z"></path><path class="cls-1" d="M65.43,91.93a.13.13,0,0,1,.13-.13h1.61a1.54,1.54,0,0,1,0,3.08h-.85V96.5a.13.13,0,0,1-.13.13h-.63a.13.13,0,0,1-.13-.13ZM67.11,94a.71.71,0,0,0,.71-.72.69.69,0,0,0-.71-.67h-.79V94Z"></path><path class="cls-1" d="M70.16,91.93a.13.13,0,0,1,.13-.13h2.78a.13.13,0,0,1,.13.13v.57a.13.13,0,0,1-.13.13h-2v1.13h1.69a.13.13,0,0,1,.13.13v.57a.13.13,0,0,1-.13.14H71.05v1.2h2a.13.13,0,0,1,.13.13v.57a.13.13,0,0,1-.13.13H70.29a.13.13,0,0,1-.13-.13Z"></path><path class="cls-1" d="M77,91.73a2.33,2.33,0,0,1,1.66.64.13.13,0,0,1,0,.2l-.41.43A.1.1,0,0,1,78,93,1.64,1.64,0,0,0,77,92.6a1.6,1.6,0,0,0,0,3.2A1.63,1.63,0,0,0,78,95.4a.12.12,0,0,1,.17,0l.42.44a.14.14,0,0,1,0,.19A2.3,2.3,0,0,1,77,96.7a2.49,2.49,0,0,1,0-5Z"></path><path class="cls-1" d="M80.2,91.93a.13.13,0,0,1,.13-.13H81a.13.13,0,0,1,.13.13V96.5a.13.13,0,0,1-.13.13h-.64a.13.13,0,0,1-.13-.13Z"></path><path class="cls-1" d="M82.4,96.45l2.13-4.64a.12.12,0,0,1,.11-.08h.07a.12.12,0,0,1,.12.08l2.1,4.64a.12.12,0,0,1-.11.18h-.6a.18.18,0,0,1-.19-.14l-.34-.74h-2l-.34.74a.21.21,0,0,1-.2.14h-.59A.12.12,0,0,1,82.4,96.45Zm3-1.47-.69-1.52h0L84,95Z"></path><path class="cls-1" d="M88.24,91.93a.13.13,0,0,1,.13-.13H89a.13.13,0,0,1,.13.13V95.8h1.74a.13.13,0,0,1,.13.13v.57a.13.13,0,0,1-.13.13h-2.5a.13.13,0,0,1-.13-.13Z"></path><path class="cls-1" d="M92.37,91.93a.14.14,0,0,1,.13-.13h.64a.13.13,0,0,1,.13.13V96.5a.13.13,0,0,1-.13.13H92.5a.14.14,0,0,1-.13-.13Z"></path><path class="cls-1" d="M95.2,91.93a.12.12,0,0,1,.12-.13h1.62a2.42,2.42,0,0,1,0,4.83H95.32a.12.12,0,0,1-.12-.13Zm1.66,3.86a1.58,1.58,0,0,0,0-3.15h-.78v3.15Z"></path><path class="cls-1" d="M100.26,96.45l2.13-4.64a.12.12,0,0,1,.11-.08h.07a.12.12,0,0,1,.12.08l2.1,4.64a.12.12,0,0,1-.11.18h-.6a.2.2,0,0,1-.2-.14l-.33-.74h-2l-.34.74a.21.21,0,0,1-.2.14h-.59A.12.12,0,0,1,100.26,96.45ZM103.21,95l-.68-1.52h0L101.84,95Z"></path><path class="cls-1" d="M106.1,91.93a.12.12,0,0,1,.12-.13h1.62a2.42,2.42,0,0,1,0,4.83h-1.62a.12.12,0,0,1-.12-.13Zm1.66,3.86a1.58,1.58,0,0,0,0-3.15H107v3.15Z"></path><path class="cls-1" d="M18.06,71.11A8.37,8.37,0,0,1,9.52,78,9.26,9.26,0,0,1,0,68.39C0,62.48,4.08,58,9.86,58c4.07,0,6.81,2.21,7.64,4.6l-4.57,2.52a4.66,4.66,0,0,1,0-1.26c0-.6.08-1.06,0-1.91a3.67,3.67,0,0,0-3.48-3.81c-2.89,0-4.6,3.34-4.6,7.25,0,6.28,3.36,9.26,6.67,9.26,5.23,0,5.65-3.91,6.21-3.91A.31.31,0,0,1,18.06,71.11Z"></path><path class="cls-1" d="M40.82,68c0,5.39-4.5,10-11,10s-11-4.59-11-10,4.5-10,11-10S40.82,62.61,40.82,68Zm-6,0c0-7.18-2.21-9.84-4.93-9.84S24.93,60.83,24.93,68s2.06,9.84,4.78,9.84S34.79,75.19,34.79,68Z"></path><path class="cls-1" d="M55.89,59H51.18l0,15.87c0,3.21,2.63,2.06,3,2.82H42.85c.32-.76,3,.39,3-2.82l0-15.88H43.17a25.18,25.18,0,0,0,4.57-7.21c.09-.26.18-.51.27-.74l.06-.15h0c1.37-3.35,3-3.89,5-3.89A4.27,4.27,0,0,1,57,49.61l-4.51,3.08c0-1,0-1,0-1.55,0-2.1-.12-3.64-1.21-3.49s-1.46,1.42-1.46,3.68c0,2,1,4.7,1.34,7.48h4.79Z"></path><path class="cls-1" d="M70.62,59H65.91l0,15.87c0,3.21,2.63,2.06,3,2.82H57.58c.32-.76,3,.39,3-2.82l0-15.88H57.9a25.42,25.42,0,0,0,4.57-7.21c.09-.26.18-.51.27-.74l.06-.15h0c1.36-3.35,3-3.89,5-3.89a4.29,4.29,0,0,1,3.87,2.6l-4.51,3.08c0-1,0-1,0-1.55,0-2.1-.11-3.64-1.2-3.49s-1.47,1.42-1.47,3.68c0,2,1,4.7,1.35,7.48h4.79Z"></path><path class="cls-1" d="M83.3,77.69H71.06c.38-.75,3.44.39,3.44-2.8V66.33c0-.08,0-.16,0-.23a4.06,4.06,0,0,0-.13-1,3.8,3.8,0,0,0-.66-1.06l-1.53-1.82c.34-.15.75-.34,1.21-.57l1.11-.58.38-.21q1.68-.93,5-2.85h0V74.89C79.85,78.08,82.92,76.94,83.3,77.69Zm-9.14-26a3,3,0,1,1,3,3A3,3,0,0,1,74.16,51.69Z"></path><path class="cls-1" d="M99.28,74.89l0-11.77c0-2-.89-3.8-2.72-3.8-1.53,0-2.88.76-4.75,2V63l0,11.89c0,3.19,2.62,2,2.94,2.8H83.52c.32-.75,2.94.39,2.94-2.8l0-5.81h0V66.33a.37.37,0,0,0,0-.11V66.1a2.76,2.76,0,0,0-.79-2l-1.54-1.82c.35-.15.76-.34,1.22-.57l.25-.13.86-.45.38-.21q1.68-.93,5-2.85h0v3.09c3.14-1.95,5-3.09,7.94-3.09,2.67,0,4.89,1.53,4.89,4.84l0,12c0,3.19,2.61,2,2.94,2.8H96.34C96.67,76.94,99.28,78.08,99.28,74.89Z"></path><path class="cls-1" d="M123,58.89l0,0c2.8,1.11,4.18,3.09,4.18,5.46,0,3.34-2.67,5.44-7.14,6.14h0l-.3,0-.51.06-.22,0a15,15,0,0,1-4.56-.41l-.11,0-.4-.11a7.54,7.54,0,0,1-.88-.26l-.43-.15-.09,0a0,0,0,0,1,0,0h0l-.47-.22a2.53,2.53,0,0,0-.27.18,2.18,2.18,0,0,0-.06,3.31,3,3,0,0,0,1.91.69,11.05,11.05,0,0,0,3.45-.79l.2-.07a23.66,23.66,0,0,1,3-.84,9.2,9.2,0,0,1,2.13-.16,5.77,5.77,0,0,1,4.17,1.72A5.24,5.24,0,0,1,128,77.56a6,6,0,0,1-2.94,5,11.55,11.55,0,0,1-5.64,1.68s0,0,0,0l0,0a6.84,6.84,0,0,0,2.45-.72,3.73,3.73,0,0,0,2-3.12,2.4,2.4,0,0,0-.78-1.91,3.2,3.2,0,0,0-2.08-.77,13,13,0,0,0-3.24.55,14.58,14.58,0,0,1-4,.48,4.85,4.85,0,0,1-.89-.12l-.25-.06a6.67,6.67,0,0,1-.72-.23h0a6.29,6.29,0,0,1-1-.53l-.46-.35a1.57,1.57,0,0,1-.21-.17l-.12-.1-.06,0h0a4,4,0,0,1-.92-1.28,4.74,4.74,0,0,1-.39-2.15,4.45,4.45,0,0,1,1-2.76,5.48,5.48,0,0,1,2.24-1.52,5,5,0,0,1-2.7-4.79c0-3.53,3-6.58,8.91-6.58h.77a14.37,14.37,0,0,1,3.85.83c1.61-3.31,3.43-4.47,5.22-4.22v3.8a4.24,4.24,0,0,0-4-.24A2,2,0,0,0,123,58.89Zm-1.72,5.48c0-5-1.45-6.15-3.19-6.15s-3.27,1.11-3.27,6.15,1.53,6.16,3.27,6.16S121.27,69.41,121.27,64.37Z"></path><path class="cls-1" d="M86.38.79s-4.48,1.32-11.08,7c-1.84,1.58-5.8,8-5.8,8a20.68,20.68,0,0,0-2.77-7.32C65.28,5.85,60.14,0,60.14,0S50.7,6,53.81,19.65c2.47,10.86,10.72,10.76,10.72,10.76l3.22,3.95,2.34,1.4a105.93,105.93,0,0,1,4.16-13.87c1.25-3,6.63-11.38,6.63-11.38s-4.36,9.17-6.07,13.36c-3.07,7.52-4.21,14.3-3.73,12.66,0,0,4.75,3.3,12.66-14.11C87.9,13.28,86.38.79,86.38.79ZM60.93,18.27a63.25,63.25,0,0,1-1.2-13.39s1.17,7.78,2.34,12.65a69.72,69.72,0,0,0,3.87,10.69A21,21,0,0,1,60.93,18.27Z"></path></g></g></svg>