<svg xmlns="http://www.w3.org/2000/svg" viewBox="0 0 10.25 12.07">
<defs>
</defs><g id="Capa_2" data-name="Capa 2"><g id="Capa_1-2" data-name="Capa 1"><path class="cls-1" d="M7.81,0a10.55,10.55,0,0,0-2,3.51,17.09,17.09,0,0,0-.44,3,6.35,6.35,0,0,0-1.81-1.6,25,25,0,0,0-3-1.36A5.58,5.58,0,0,0,1.62,9.86c2.24,2.62,4.48,1.4,4.48,1.4l1.46.62.84,0a32.71,32.71,0,0,1-.86-4.39,37.71,37.71,0,0,1,.17-4.08S7.84,6.59,8,8a15.45,15.45,0,0,0,.8,4s1.78.22,1.43-5.69A14.66,14.66,0,0,0,7.81,0ZM3.37,8.45A18.91,18.91,0,0,1,1.11,5s1.44,2,2.46,3.13a22.4,22.4,0,0,0,2.61,2.37A6.45,6.45,0,0,1,3.37,8.45Z"></path></g></g>
</svg>