<svg xmlns="http://www.w3.org/2000/svg" viewBox="0 0 170.47 38.12"><defs><style>.cls-1{fill:#453538;}</style></defs><g id="Capa_2" data-name="Capa 2"><g id="Capa_1-2" data-name="Capa 1"><path class="cls-1" d="M165.5,11.9l0,0c2.8,1.12,4.18,3.09,4.18,5.46,0,3.35-2.67,5.44-7.14,6.15h0l-.3,0-.51.06-.22,0a14.68,14.68,0,0,1-4.56-.41l-.1,0-.4-.1c-.32-.08-.61-.17-.89-.26l-.42-.16-.1,0h0l-.47-.23-.26.18a2.14,2.14,0,0,0-.8,1.56,2.12,2.12,0,0,0,.74,1.75,3,3,0,0,0,1.9.7,11.26,11.26,0,0,0,3.46-.8l.19-.06a22.39,22.39,0,0,1,3-.85,9.24,9.24,0,0,1,2.13-.16A5.77,5.77,0,0,1,169,26.49a5.24,5.24,0,0,1,1.42,4.07,6.45,6.45,0,0,1-3.15,5.19c-1.49,1-6.07,2.3-9.56,2.3,0,0,0,0,0,0a0,0,0,0,1,0,0A23,23,0,0,0,164,36.38a3.82,3.82,0,0,0,2.32-3,2.38,2.38,0,0,0-.78-1.91,3.17,3.17,0,0,0-2.07-.77,14.17,14.17,0,0,0-3.25.55,15.05,15.05,0,0,1-3.95.49,6,6,0,0,1-.89-.13l-.25-.06a5.88,5.88,0,0,1-.71-.23h0a6.82,6.82,0,0,1-1-.54l-.45-.34-.22-.17-.12-.11-.05-.05h0a4,4,0,0,1-.91-1.28,4.59,4.59,0,0,1-.39-2.15,4.41,4.41,0,0,1,1-2.76,5.55,5.55,0,0,1,2.24-1.52,5,5,0,0,1-2.7-4.79c0-3.52,3-6.58,8.92-6.58h.76a14.37,14.37,0,0,1,3.85.83c1.61-3.3,3.43-4.47,5.22-4.22v3.81a4.25,4.25,0,0,0-4-.25A2,2,0,0,0,165.5,11.9Zm-1.72,5.48c0-5-1.45-6.16-3.19-6.16s-3.27,1.12-3.27,6.16,1.53,6.15,3.27,6.15S163.78,22.41,163.78,17.38Z"></path><path class="cls-1" d="M60.53,24.1A8.38,8.38,0,0,1,52,31a9.26,9.26,0,0,1-9.52-9.6c0-5.91,4.08-10.37,9.86-10.37,4.08,0,6.82,2.21,7.64,4.61L55.4,18.14a5.21,5.21,0,0,1,0-1.27c0-.59.08-1.06,0-1.91a3.66,3.66,0,0,0-3.48-3.8c-2.88,0-4.59,3.33-4.59,7.24,0,6.29,3.35,9.26,6.67,9.26,5.22,0,5.65-3.9,6.2-3.9A.31.31,0,0,1,60.53,24.1Z"></path><path class="cls-1" d="M83.29,21c0,5.4-4.5,10-11,10s-11-4.59-11-10,4.5-10,11-10S83.29,15.6,83.29,21Zm-6,0c0-7.17-2.21-9.83-4.93-9.83S67.4,13.82,67.4,21s2.06,9.85,4.78,9.85S77.26,28.18,77.26,21Z"></path><path class="cls-1" d="M98.36,12h-4.7V27.86c0,3.21,2.64,2.06,3,2.81H85.32c.33-.75,3,.4,3-2.81L88.3,12H85.65a25.57,25.57,0,0,0,4.57-7.22c.09-.26.18-.5.27-.73a.75.75,0,0,0,.05-.16h0c1.37-3.34,3-3.88,5-3.88a4.25,4.25,0,0,1,3.87,2.6L94.91,5.68c0-1,0-1,0-1.56,0-2.1-.12-3.64-1.21-3.49s-1.46,1.42-1.46,3.69c0,2,1,4.69,1.34,7.47h4.8Z"></path><path class="cls-1" d="M113.09,12h-4.71l0,15.88c0,3.21,2.63,2.06,3,2.81H100.05c.32-.75,3,.4,3-2.81L103,12h-2.66a25.32,25.32,0,0,0,4.57-7.22c.09-.26.18-.5.27-.73l.06-.16h0c1.37-3.34,3-3.88,5-3.88a4.25,4.25,0,0,1,3.87,2.6l-4.51,3.08c0-1,0-1,0-1.56,0-2.1-.12-3.64-1.21-3.49S107,2.05,107,4.32c0,2,1,4.69,1.34,7.47h4.79Z"></path><path class="cls-1" d="M125.77,30.67H113.53c.38-.75,3.45.4,3.45-2.79V19.56a2,2,0,0,0,0-.25,1.62,1.62,0,0,0,0-.22,4.06,4.06,0,0,0-.13-1,3.17,3.17,0,0,0-.66-1.06l-1.53-1.83c.34-.14.75-.33,1.21-.56l1.11-.59.38-.21c1.13-.61,2.78-1.56,5-2.84h0V27.88C122.33,31.07,125.39,29.92,125.77,30.67Zm-9.14-26a3,3,0,1,1,3,3A3,3,0,0,1,116.63,4.68Z"></path><path class="cls-1" d="M141.76,27.88l0-11.77c0-2-.89-3.81-2.71-3.81-1.54,0-2.89.76-4.76,2V16l0,11.89c0,3.19,2.61,2,2.93,2.79H126c.32-.75,2.94.4,2.94-2.79l0-5.81h0V19.56a2,2,0,0,0,0-.25V19.2a.37.37,0,0,0,0-.11,4.06,4.06,0,0,0-.13-1,3.54,3.54,0,0,0-.66-1.06l-1.53-1.83c.34-.14.75-.33,1.21-.56l.25-.13.86-.46.38-.21q1.68-.91,5-2.84h0v3.1c3.14-1.95,5-3.1,7.94-3.1,2.68,0,4.89,1.53,4.89,4.84l0,12c0,3.19,2.62,2,2.94,2.79H138.82C139.14,29.92,141.76,31.07,141.76,27.88Z"></path><path class="cls-1" d="M165.46,11.88l0,0c2.8,1.12,4.18,3.1,4.18,5.47,0,3.34-2.67,5.44-7.14,6.14h0l-.3,0-.51.07-.22,0a15.32,15.32,0,0,1-4.56-.41l-.1,0-.4-.1c-.32-.08-.61-.16-.89-.26l-.42-.16-.1,0h0l-.47-.23a1.74,1.74,0,0,0-.26.19,2.1,2.1,0,0,0-.8,1.55,2.14,2.14,0,0,0,.73,1.75,3,3,0,0,0,1.91.7,11.05,11.05,0,0,0,3.45-.79l.2-.07a22.08,22.08,0,0,1,3-.84,9.27,9.27,0,0,1,2.13-.17A5.81,5.81,0,0,1,169,26.47a5.23,5.23,0,0,1,1.42,4.07,6,6,0,0,1-2.94,5,11.51,11.51,0,0,1-5.64,1.67,0,0,0,0,1,0,0l0,0a7,7,0,0,0,2.45-.72,3.73,3.73,0,0,0,2-3.12,2.39,2.39,0,0,0-.78-1.92,3.17,3.17,0,0,0-2.07-.76,12.93,12.93,0,0,0-3.25.55,14.58,14.58,0,0,1-4,.48,4.16,4.16,0,0,1-.89-.13,1,1,0,0,1-.25-.06,5,5,0,0,1-.72-.23h0a6.28,6.28,0,0,1-1-.54l-.45-.34a1.84,1.84,0,0,1-.22-.17l-.12-.11-.05,0h0a4.06,4.06,0,0,1-.92-1.28,4.72,4.72,0,0,1-.39-2.15,4.44,4.44,0,0,1,1-2.75,5.46,5.46,0,0,1,2.24-1.52,5,5,0,0,1-2.7-4.79c0-3.53,3-6.59,8.92-6.59h.76a14.76,14.76,0,0,1,3.85.83c1.61-3.3,3.43-4.47,5.22-4.22v3.81a4.26,4.26,0,0,0-4-.25A2,2,0,0,0,165.46,11.88Zm-1.72,5.48c0-5-1.45-6.16-3.19-6.16s-3.27,1.12-3.27,6.16,1.53,6.15,3.27,6.15S163.74,22.39,163.74,17.36Z"></path><path class="cls-1" d="M34.41.82S29.76,2.19,22.93,8.06c-1.91,1.64-6,8.27-6,8.27S16.64,13.39,14,8.75C12.54,6.07,7.21,0,7.21,0S-2.57,6.26.65,20.36C3.21,31.62,11.76,31.51,11.76,31.51l3.34,4.1,2.43,1.45a109.43,109.43,0,0,1,4.3-14.37c1.3-3.16,6.88-11.8,6.88-11.8s-4.52,9.51-6.3,13.85c-3.17,7.79-4.36,14.82-3.86,13.12,0,0,4.92,3.41,13.12-14.63C36,13.76,34.41.82,34.41.82ZM8,18.93A65.54,65.54,0,0,1,6.79,5.06S8,13.11,9.21,18.16a72.19,72.19,0,0,0,4,11.09A21.82,21.82,0,0,1,8,18.93Z"></path></g></g></svg>