<svg xmlns="http://www.w3.org/2000/svg" viewBox="0 0 81.72 104.27"><defs><style>.cls-1{font-size:5.94px;}.cls-1,.cls-2,.cls-3{fill:#453538;}.cls-1,.cls-2{font-family:BrandonGrotesque-Bold, Brandon Grotesque;font-weight:700;}.cls-2{font-size:10px;}</style></defs><g id="Capa_2" data-name="Capa 2"><g id="Capa_1-2" data-name="Capa 1"><text class="cls-1" transform="matrix(0.3, 0.94, -0.95, 0.3, 7.76, 60.67)">C</text><text class="cls-1" transform="translate(9.57 65.94) rotate(63.57) scale(0.99 1)">A</text><text class="cls-1" transform="translate(12.11 70.76) rotate(55.29) scale(0.99 1)">F</text><text class="cls-1" transform="matrix(0.67, 0.73, -0.74, 0.68, 14.94, 74.68)">É</text><text class="cls-1" transform="translate(18.38 78.2) rotate(41.18) scale(0.99 1)"> </text><text class="cls-1" transform="matrix(0.82, 0.56, -0.56, 0.83, 20.46, 80.03)">D</text><text class="cls-1" transform="matrix(0.89, 0.43, -0.43, 0.9, 25.42, 83.24)">E</text><text class="cls-1" transform="translate(29.88 85.23) rotate(19.58) scale(0.99 1)"> </text><text class="cls-1" transform="matrix(0.96, 0.23, -0.23, 0.97, 32.5, 86.14)">E</text><text class="cls-1" transform="matrix(0.99, 0.1, -0.1, 1, 37.37, 87.18)">S</text><text class="cls-1" transform="translate(42.07 87.54) rotate(-2.23) scale(0.99 1)">P</text><text class="cls-1" transform="translate(47.07 87.24) rotate(-10.19) scale(0.99 1)">E</text><text class="cls-1" transform="matrix(0.94, -0.32, 0.32, 0.95, 51.95, 86.27)">C</text><text class="cls-1" transform="translate(57.11 84.37) rotate(-25.61) scale(0.99 1)">I</text><text class="cls-1" transform="matrix(0.83, -0.53, 0.54, 0.84, 60.12, 82.9)">A</text><text class="cls-1" transform="translate(64.63 79.84) rotate(-40.67) scale(0.99 1)">L</text><text class="cls-1" transform="matrix(0.68, -0.72, 0.73, 0.68, 67.88, 76.9)">I</text><text class="cls-1" transform="matrix(0.58, -0.8, 0.81, 0.58, 70.17, 74.44)">D</text><text class="cls-1" transform="translate(73.49 69.6) rotate(-63.13) scale(0.99 1)">A</text><text class="cls-1" transform="translate(75.87 64.66) rotate(-72.29) scale(0.99 1)">D</text><text class="cls-2" transform="matrix(0.74, -0.66, 0.67, 0.74, 18.66, 30.26)">C</text><text class="cls-2" transform="translate(24.92 24.81) rotate(-26.07) scale(0.99 1)">O</text><text class="cls-2" transform="translate(33.6 20.96) rotate(-11.18) scale(0.99 1)">F</text><text class="cls-2" transform="matrix(0.99, 0.03, -0.03, 1, 40.71, 19.74)">F</text><text class="cls-2" transform="matrix(0.97, 0.22, -0.22, 0.98, 47.94, 20.25)">I</text><text class="cls-2" transform="translate(52.61 21.24) rotate(25.17) scale(0.99 1)">N</text><text class="cls-2" transform="translate(60.86 25.4) rotate(41.23) scale(0.99 1)">G</text><path class="cls-3" d="M56.12,36.59S52.41,37.68,47,42.37c-1.52,1.31-4.8,6.61-4.8,6.61a17.28,17.28,0,0,0-2.29-6.06,67.67,67.67,0,0,0-5.46-7s-7.8,5-5.24,16.26c2.05,9,8.88,8.91,8.88,8.91l2.67,3.27,1.93,1.16a88.72,88.72,0,0,1,3.44-11.48c1-2.52,5.49-9.42,5.49-9.42s-3.61,7.59-5,11.06C44,61.91,43.06,67.52,43.46,66.17c0,0,3.93,2.72,10.48-11.68C57.38,46.92,56.12,36.59,56.12,36.59ZM35.06,51.05a52.34,52.34,0,0,1-1-11.08S35,46.41,36,50.44a57.8,57.8,0,0,0,3.2,8.85A17.38,17.38,0,0,1,35.06,51.05Z"></path><path class="cls-3" d="M15.65,29.7,15,28.94A34.64,34.64,0,0,0,7.61,50.32a35.11,35.11,0,0,0,.77,7.3h1A33.71,33.71,0,0,1,15.65,29.7Z"></path><path class="cls-3" d="M70.33,29.4c-.21.27-.43.52-.66.78a33.61,33.61,0,0,1,5.91,27.44,3.73,3.73,0,0,1,.94.39A34.63,34.63,0,0,0,70.33,29.4Z"></path></g></g></svg>